<svg width="14" height="14" viewBox="0 0 14 14" fill="none" xmlns="http://www.w3.org/2000/svg">
<path d="M6.02407 0.281641C4.82641 0.453906 3.66704 0.940625 2.68266 1.75273L4.79907 3.86914C5.55922 2.89023 5.98305 1.64883 6.02407 0.281641ZM7.00024 6.07031L11.3178 1.75273C10.1584 0.795703 8.75844 0.289844 7.3393 0.21875C7.30649 1.96602 6.75141 3.56289 5.73422 4.8043L7.00024 6.07031ZM1.75297 2.68242C0.940869 3.6668 0.45415 4.82617 0.281885 6.02383C1.64907 5.98281 2.89321 5.55898 3.86938 4.79883L1.75297 2.68242ZM9.19594 8.26602C10.4346 7.25156 12.0315 6.69648 13.7815 6.66094C13.7104 5.2418 13.2045 3.8418 12.2475 2.68242L7.92993 7L9.19594 8.26602ZM7.00024 7.92969L2.68266 12.2472C3.84204 13.2015 5.24204 13.7101 6.66118 13.7812C6.69672 12.0312 7.2518 10.4344 8.26626 9.1957L7.00024 7.92969ZM12.2475 11.3175C13.0596 10.3333 13.5463 9.17383 13.7186 7.97617C12.3487 8.01992 11.1073 8.44375 10.1311 9.20117L12.2475 11.3175ZM4.80454 5.73398C3.56313 6.75117 1.96626 7.30898 0.218994 7.33906C0.290088 8.7582 0.795947 10.1582 1.75297 11.3175L6.07055 7L4.80454 5.73398ZM7.97641 13.7184C9.17407 13.5461 10.3335 13.0594 11.3178 12.2472L9.20141 10.1309C8.44399 11.107 8.02016 12.3512 7.97641 13.7184Z" fill="#EBEDF0"/>
</svg>
