<svg width="4" height="4" viewBox="0 0 4 4" fill="none" xmlns="http://www.w3.org/2000/svg">
<path d="M2 3.66477C1.71354 3.66477 1.45194 3.59493 1.2152 3.45526C0.978457 3.31321 0.789063 3.12382 0.647017 2.88707C0.507339 2.65033 0.4375 2.38873 0.4375 2.10227C0.4375 1.81345 0.507339 1.55185 0.647017 1.31747C0.789063 1.08073 0.978457 0.892519 1.2152 0.752841C1.45194 0.610795 1.71354 0.539773 2 0.539773C2.28883 0.539773 2.55043 0.610795 2.7848 0.752841C3.02154 0.892519 3.20975 1.08073 3.34943 1.31747C3.49148 1.55185 3.5625 1.81345 3.5625 2.10227C3.5625 2.38873 3.49148 2.65033 3.34943 2.88707C3.20975 3.12382 3.02154 3.31321 2.7848 3.45526C2.55043 3.59493 2.28883 3.66477 2 3.66477Z" fill="white"/>
</svg>
