<svg width="25" height="25" viewBox="0 0 25 25" fill="none" xmlns="http://www.w3.org/2000/svg">
<g clip-path="url(#clip0_739_8208)">
<path d="M19.48 0.5H5.47998C2.71898 0.5 0.47998 2.739 0.47998 5.5V19.5C0.47998 22.261 2.71898 24.5 5.47998 24.5H19.48C22.242 24.5 24.48 22.261 24.48 19.5V5.5C24.48 2.739 22.242 0.5 19.48 0.5ZM8.47998 19.5H5.47998V8.5H8.47998V19.5ZM6.97998 7.232C6.01398 7.232 5.22998 6.442 5.22998 5.468C5.22998 4.494 6.01398 3.704 6.97998 3.704C7.94598 3.704 8.72998 4.494 8.72998 5.468C8.72998 6.442 7.94698 7.232 6.97998 7.232ZM20.48 19.5H17.48V13.896C17.48 10.528 13.48 10.783 13.48 13.896V19.5H10.48V8.5H13.48V10.265C14.876 7.679 20.48 7.488 20.48 12.741V19.5Z" fill="#EAF7FF"/>
</g>
<defs>
<clipPath id="clip0_739_8208">
<rect width="24" height="24" fill="white" transform="translate(0.47998 0.5)"/>
</clipPath>
</defs>
</svg>
