<svg width="253" height="36" viewBox="0 0 253 36" fill="none" xmlns="http://www.w3.org/2000/svg">
<path d="M7.55298 1.07422H5.81743C5.19392 1.07422 4.68848 1.57969 4.68848 2.20319V3.93874C4.68848 4.56224 5.19392 5.06768 5.81743 5.06768H7.55298C8.17648 5.06768 8.68192 4.56224 8.68192 3.93874V2.20319C8.68192 1.57969 8.17648 1.07422 7.55298 1.07422Z" fill="#3D9ED8"/>
<path d="M14.9629 1.07422H13.2273C12.6038 1.07422 12.0984 1.57969 12.0984 2.20319V3.93874C12.0984 4.56224 12.6038 5.06768 13.2273 5.06768H14.9629C15.5864 5.06768 16.0918 4.56224 16.0918 3.93874V2.20319C16.0918 1.57969 15.5864 1.07422 14.9629 1.07422Z" fill="#3D9ED8"/>
<path d="M45.4277 1.07422H20.8099C20.1864 1.07422 19.6809 1.57969 19.6809 2.20319V3.93874C19.6809 4.56224 20.1864 5.06768 20.8099 5.06768H45.4277C46.0512 5.06768 46.5566 4.56224 46.5566 3.93874V2.20319C46.5566 1.57969 46.0512 1.07422 45.4277 1.07422Z" fill="#3D9ED8"/>
<path d="M45.4276 8.53906H29.3907C28.7672 8.53906 28.2617 9.04451 28.2617 9.66801V11.4036C28.2617 12.0271 28.7672 12.5325 29.3907 12.5325H45.4276C46.0511 12.5325 46.5566 12.0271 46.5566 11.4036V9.66801C46.5566 9.04451 46.0511 8.53906 45.4276 8.53906Z" fill="#3D9ED8"/>
<path d="M23.6615 8.53906H15.9527C15.3292 8.53906 14.8237 9.04451 14.8237 9.66801V11.4036C14.8237 12.0271 15.3292 12.5325 15.9527 12.5325H23.6615C24.285 12.5325 24.7905 12.0271 24.7905 11.4036V9.66801C24.7905 9.04451 24.285 8.53906 23.6615 8.53906Z" fill="#3D9ED8"/>
<path d="M10.5144 8.53906H8.77885C8.15535 8.53906 7.6499 9.04451 7.6499 9.66801V11.4036C7.6499 12.0271 8.15535 12.5325 8.77885 12.5325H10.5144C11.1379 12.5325 11.6433 12.0271 11.6433 11.4036V9.66801C11.6433 9.04451 11.1379 8.53906 10.5144 8.53906Z" fill="#3D9ED8"/>
<path d="M2.8645 8.53906H1.12895C0.505448 8.53906 0 9.04451 0 9.66801V11.4036C0 12.0271 0.505448 12.5325 1.12895 12.5325H2.8645C3.488 12.5325 3.99345 12.0271 3.99345 11.4036V9.66801C3.99345 9.04451 3.488 8.53906 2.8645 8.53906Z" fill="#3D9ED8"/>
<path d="M6.58813 16.0039H4.85258C4.22908 16.0039 3.72363 16.5094 3.72363 17.1329V18.8684C3.72363 19.4919 4.22908 19.9974 4.85258 19.9974H6.58813C7.21163 19.9974 7.71708 19.4919 7.71708 18.8684V17.1329C7.71708 16.5094 7.21163 16.0039 6.58813 16.0039Z" fill="#3D9ED8"/>
<path d="M19.4828 16.0039H11.9593C11.3358 16.0039 10.8303 16.5094 10.8303 17.1329V18.8684C10.8303 19.4919 11.3358 19.9974 11.9593 19.9974H19.4828C20.1063 19.9974 20.6117 19.4919 20.6117 18.8684V17.1329C20.6117 16.5094 20.1063 16.0039 19.4828 16.0039Z" fill="#3D9ED8"/>
<path d="M45.4276 16.0039H24.8201C24.1966 16.0039 23.6912 16.5094 23.6912 17.1329V18.8684C23.6912 19.4919 24.1966 19.9974 24.8201 19.9974H45.4276C46.0511 19.9974 46.5566 19.4919 46.5566 18.8684V17.1329C46.5566 16.5094 46.0511 16.0039 45.4276 16.0039Z" fill="#3D9ED8"/>
<path d="M2.8645 23.4629H1.12895C0.505448 23.4629 0 23.9683 0 24.5918V26.3274C0 26.9509 0.505448 27.4563 1.12895 27.4563H2.8645C3.488 27.4563 3.99345 26.9509 3.99345 26.3274V24.5918C3.99345 23.9683 3.488 23.4629 2.8645 23.4629Z" fill="#3D9ED8"/>
<path d="M10.5144 23.4629H8.77885C8.15535 23.4629 7.6499 23.9683 7.6499 24.5918V26.3274C7.6499 26.9509 8.15535 27.4563 8.77885 27.4563H10.5144C11.1379 27.4563 11.6433 26.9509 11.6433 26.3274V24.5918C11.6433 23.9683 11.1379 23.4629 10.5144 23.4629Z" fill="#3D9ED8"/>
<path d="M45.4277 23.4629H16.2898C15.6663 23.4629 15.1609 23.9683 15.1609 24.5918V26.3274C15.1609 26.9509 15.6663 27.4563 16.2898 27.4563H45.4277C46.0512 27.4563 46.5566 26.9509 46.5566 26.3274V24.5918C46.5566 23.9683 46.0512 23.4629 45.4277 23.4629Z" fill="#3D9ED8"/>
<path d="M6.58813 30.9277H4.85258C4.22908 30.9277 3.72363 31.4332 3.72363 32.0567V33.7922C3.72363 34.4157 4.22908 34.9212 4.85258 34.9212H6.58813C7.21163 34.9212 7.71708 34.4157 7.71708 33.7922V32.0567C7.71708 31.4332 7.21163 30.9277 6.58813 30.9277Z" fill="#3D9ED8"/>
<path d="M14.5078 30.9277H12.7723C12.1488 30.9277 11.6433 31.4332 11.6433 32.0567V33.7922C11.6433 34.4157 12.1488 34.9212 12.7723 34.9212H14.5078C15.1313 34.9212 15.6368 34.4157 15.6368 33.7922V32.0567C15.6368 31.4332 15.1313 30.9277 14.5078 30.9277Z" fill="#3D9ED8"/>
<path d="M21.4795 30.9277H19.7439C19.1204 30.9277 18.615 31.4332 18.615 32.0567V33.7922C18.615 34.4157 19.1204 34.9212 19.7439 34.9212H21.4795C22.103 34.9212 22.6084 34.4157 22.6084 33.7922V32.0567C22.6084 31.4332 22.103 30.9277 21.4795 30.9277Z" fill="#3D9ED8"/>
<path d="M45.4274 30.9277H27.1241C26.5006 30.9277 25.9951 31.4332 25.9951 32.0567V33.7922C25.9951 34.4157 26.5006 34.9212 27.1241 34.9212H45.4274C46.0509 34.9212 46.5563 34.4157 46.5563 33.7922V32.0567C46.5563 31.4332 46.0509 30.9277 45.4274 30.9277Z" fill="#3D9ED8"/>
<path d="M49.303 36C59.2441 36 67.303 27.9411 67.303 18C67.303 8.05889 59.2441 0 49.303 0C39.3618 0 31.303 8.05889 31.303 18C31.303 27.9411 39.3618 36 49.303 36Z" fill="white"/>
<path d="M40.5329 27.1114H39.0796V28.8765H36.6406V29.9675H35.8697C33.0347 26.7913 31.3118 22.5957 31.3118 17.9998C31.3118 13.7284 32.7988 9.80651 35.2884 6.71875C34.4922 8.75339 34.0541 10.9649 34.0541 13.2776C34.0541 18.8381 36.5774 23.8088 40.5371 27.1114H40.5329Z" fill="#6170B5"/>
<path d="M42.458 28.5106H40.7604V30.2588H38.3171V31.3457H37.2261C36.9733 31.114 36.7206 30.8781 36.4805 30.6295H37.2935V29.5385H39.7367V27.7734H41.3712C41.7208 28.0304 42.0831 28.2789 42.4538 28.5106H42.458Z" fill="#6170B5"/>
<path d="M45.0697 29.8744V30.4052H42.4622V32.1702H40.0232V33.2613H39.7662C39.1596 32.8822 38.5783 32.4693 38.0222 32.0186H38.9827V30.9318H41.4259V29.1836H43.6164C44.0882 29.4363 44.5769 29.668 45.0697 29.8744Z" fill="#6170B5"/>
<path d="M66.0688 24.5547C63.4487 31.2526 56.9277 35.9958 49.3031 35.9958C46.1774 35.9958 43.2413 35.1996 40.6843 33.8011V32.828H43.1234V31.063H45.7309V30.1362C47.6939 30.8734 49.8212 31.2736 52.0454 31.2736C57.7154 31.2736 62.7747 28.6534 66.0688 24.5547Z" fill="#6170B5"/>
<path d="M59.3416 4.59585H58.7729V6.56729H57.8883V9.42335H56.713V11.5254H54.9437V13.9644H53.9327V16.1044H51.9992V18.4592H50.2763V20.6033H47.9215V22.2799H46.0722V24.1713H44.0081V25.5993H41.6954V27.1116H40.537C36.5772 23.809 34.054 18.8383 34.054 13.2778C34.054 10.9651 34.4921 8.75357 35.2882 6.71894C38.5866 2.62439 43.6416 0 49.3116 0C52.8965 0 56.237 1.04892 59.0425 2.85608L59.35 4.59585H59.3416Z" fill="#47A0D8"/>
<path d="M62.7243 7.88972H62.1557V9.86117H61.271V12.7172H60.0957V14.8193H58.3265V17.2541H57.3155V19.394H55.3777V21.7488H53.6548V23.893H51.2958V25.5696H49.4466V27.461H47.3824V28.889H45.0698V29.8705C44.5727 29.6641 44.0883 29.4324 43.6165 29.1797H44.0335V27.6758H46.3462V26.2604H48.4061V24.3858H50.2596V22.7177H52.6143V20.5946H54.3373V18.2567H56.2708V16.1294H57.2818V13.7114H59.0468V11.6262H60.2221V8.79118H61.1067V6.83238H61.8018L61.4269 4.70508C61.7302 4.97889 62.0209 5.26533 62.3031 5.5602L62.7159 7.88551L62.7243 7.88972Z" fill="#47A0D8"/>
<path d="M67.3032 18.0004C67.3032 20.3131 66.865 22.5246 66.0689 24.5551C62.7705 28.6538 57.7155 31.274 52.0455 31.274C49.8255 31.274 47.6982 30.8696 45.731 30.1366V29.5511H48.0436V28.123H50.1077V26.2316H51.957V24.5551H54.316V22.4109H56.0389V20.0561H57.9767V17.9162H58.9877V15.4813H60.7569V13.3793H61.9322V10.5232H62.8168V8.55177H63.5119L63.1496 6.49609C65.7445 9.61755 67.3032 13.6236 67.3032 18.0004Z" fill="#47A0D8"/>
<path d="M61.0182 6.16305H60.4538V8.12187H59.5691V10.9611H58.3938V13.0463H56.6288V15.4642H55.6178V17.5916H53.6843V19.9295H51.9614V22.0568H49.6066V23.7249H47.7531V25.5995H45.6932V27.0149H43.3805V28.5188H42.4664C42.0957 28.2871 41.7376 28.0385 41.3838 27.7816H42.3569V26.2693H44.6695V24.8413H46.7337V22.9541H48.5829V21.2733H50.9377V19.1291H52.6606V16.7743H54.5942V14.6344H55.6052V12.1953H57.3744V10.0933H58.5497V7.23723H59.4343V5.26579H60.1294L59.8008 3.38281C60.0873 3.58922 60.3737 3.80405 60.6475 4.02731L61.0224 6.16727L61.0182 6.16305Z" fill="#47A0D8"/>
<path d="M85.3664 29.2473C83.8162 29.2473 82.5104 28.9988 81.4488 28.5017C80.3873 28.0047 79.5827 27.3138 79.0351 26.4292C78.4874 25.5445 78.2136 24.5462 78.2136 23.4341H80.1345C80.1345 24.1418 80.3072 24.8032 80.6527 25.4182C80.9981 26.0332 81.5541 26.5303 82.3208 26.9094C83.0875 27.2885 84.1027 27.4781 85.3664 27.4781C86.5291 27.4781 87.4938 27.3096 88.2604 26.9726C89.0271 26.6356 89.6 26.1807 89.9791 25.6078C90.3582 25.0349 90.5478 24.3946 90.5478 23.6869C90.5478 22.7938 90.1982 22.0482 89.4989 21.45C88.7996 20.8519 87.7507 20.4938 86.3522 20.3758L84.2291 20.1736C82.6452 20.0388 81.3856 19.546 80.4505 18.695C79.5153 17.8441 79.0477 16.7194 79.0477 15.3208C79.0477 14.2593 79.3004 13.3241 79.8059 12.5153C80.3114 11.7065 81.0318 11.0662 81.967 10.5944C82.9021 10.1226 84.0269 9.88672 85.3412 9.88672C86.6555 9.88672 87.8139 10.1268 88.7659 10.607C89.7179 11.0873 90.4467 11.7486 90.9522 12.5911C91.4577 13.4336 91.7105 14.4109 91.7105 15.523H89.7896C89.7896 14.849 89.6379 14.2172 89.3346 13.6274C89.0313 13.0377 88.5511 12.5616 87.8939 12.1994C87.2368 11.8371 86.3859 11.656 85.3412 11.656C84.2965 11.656 83.5256 11.8245 82.8769 12.1615C82.2281 12.4985 81.7479 12.945 81.4362 13.501C81.1245 14.0571 80.9686 14.6637 80.9686 15.3208C80.9686 16.1465 81.2635 16.8458 81.8532 17.4187C82.443 17.9916 83.2939 18.3201 84.406 18.4044L86.5291 18.6066C87.776 18.7077 88.8418 18.9815 89.7264 19.428C90.611 19.8745 91.2892 20.4559 91.761 21.172C92.2328 21.8881 92.4687 22.7264 92.4687 23.6869C92.4687 24.7653 92.178 25.7257 91.5967 26.5682C91.0154 27.4107 90.194 28.0678 89.1324 28.5396C88.0709 29.0114 86.8155 29.2473 85.3664 29.2473Z" fill="#231F20"/>
<path d="M96.6392 33.8726V15.4471H98.1557V21.1846L97.7007 21.2351C97.7681 19.8871 98.0588 18.7497 98.5727 17.823C99.0866 16.8962 99.7859 16.1927 100.671 15.7125C101.555 15.2323 102.545 14.9922 103.64 14.9922C104.618 14.9922 105.506 15.1817 106.307 15.5609C107.107 15.94 107.79 16.4539 108.354 17.1027C108.919 17.7514 109.348 18.4928 109.643 19.3268C109.938 20.1609 110.085 21.0329 110.085 21.9428V22.2966C110.085 23.2065 109.934 24.0785 109.631 24.9126C109.327 25.7467 108.893 26.4881 108.329 27.1368C107.764 27.7855 107.082 28.2995 106.282 28.6786C105.481 29.0577 104.584 29.2473 103.59 29.2473C102.528 29.2473 101.555 29.0072 100.671 28.5269C99.7859 28.0467 99.0698 27.3348 98.5221 26.3912C97.9745 25.4476 97.6754 24.2849 97.6249 22.9032L98.5348 24.7989V33.8726H96.6392ZM103.337 27.5791C104.348 27.5791 105.216 27.339 105.94 26.8588C106.665 26.3786 107.221 25.7214 107.609 24.8873C107.996 24.0533 108.19 23.1307 108.19 22.1197C108.19 21.1087 107.992 20.1441 107.596 19.3268C107.2 18.5096 106.64 17.8609 105.915 17.3807C105.191 16.9004 104.331 16.6603 103.337 16.6603C102.427 16.6603 101.601 16.8625 100.86 17.2669C100.119 17.6713 99.5331 18.24 99.1035 18.973C98.6738 19.706 98.459 20.5695 98.459 21.5637V22.8021C98.459 23.7457 98.6738 24.5756 99.1035 25.2917C99.5331 26.0079 100.119 26.5681 100.86 26.9725C101.601 27.3769 102.427 27.5791 103.337 27.5791Z" fill="#231F20"/>
<path d="M119.917 29.2473C118.771 29.2473 117.765 29.0493 116.897 28.6533C116.029 28.2573 115.296 27.7265 114.698 27.061C114.1 26.3954 113.645 25.6498 113.333 24.8241C113.021 23.9985 112.865 23.156 112.865 22.2966V21.9428C112.865 21.0835 113.026 20.2367 113.346 19.4027C113.666 18.5686 114.129 17.823 114.736 17.1658C115.342 16.5087 116.08 15.9821 116.947 15.5861C117.815 15.1902 118.805 14.9922 119.917 14.9922C121.029 14.9922 122.045 15.1902 122.912 15.5861C123.78 15.9821 124.517 16.5087 125.124 17.1658C125.73 17.823 126.19 18.5686 126.501 19.4027C126.813 20.2367 126.969 21.0835 126.969 21.9428V22.2966C126.969 23.156 126.817 23.9985 126.514 24.8241C126.211 25.6498 125.76 26.3954 125.162 27.061C124.564 27.7265 123.826 28.2573 122.95 28.6533C122.074 29.0493 121.063 29.2473 119.917 29.2473ZM119.917 27.5539C121.029 27.5539 121.969 27.3053 122.735 26.8082C123.502 26.3112 124.088 25.654 124.492 24.8368C124.896 24.0196 125.099 23.1139 125.099 22.1197C125.099 21.1256 124.892 20.1946 124.479 19.3774C124.067 18.5602 123.473 17.9114 122.697 17.4312C121.922 16.951 120.996 16.7109 119.917 16.7109C118.839 16.7109 117.937 16.951 117.162 17.4312C116.387 17.9114 115.793 18.5602 115.38 19.3774C114.968 20.1946 114.761 21.1087 114.761 22.1197C114.761 23.1307 114.963 24.0196 115.368 24.8368C115.772 25.654 116.358 26.3112 117.124 26.8082C117.891 27.3053 118.822 27.5539 119.917 27.5539Z" fill="#231F20"/>
<path d="M130.836 28.817V15.4466H132.353V21.0323H132.201C132.201 19.0777 132.631 17.6329 133.49 16.6977C134.349 15.7625 135.697 15.2949 137.534 15.2949H137.964V17.0136H137.18C135.731 17.0136 134.627 17.3885 133.869 18.1384C133.111 18.8882 132.732 19.9876 132.732 21.4367V28.817H130.836Z" fill="#231F20"/>
<path d="M139.202 16.8882V15.4475H148.251V16.8882H139.202ZM146.127 28.9696C145.201 28.9696 144.4 28.8348 143.726 28.5652C143.052 28.2956 142.53 27.8364 142.159 27.1877C141.789 26.539 141.603 25.667 141.603 24.5717V11.2266H143.423V24.8498C143.423 25.6249 143.634 26.2188 144.055 26.6317C144.476 27.0445 145.074 27.2509 145.849 27.2509H148.251V28.9696H146.127Z" fill="#231F20"/>
<path d="M156.035 29.1969C154.316 29.1969 152.994 28.822 152.067 28.0722C151.14 27.3224 150.668 26.3156 150.652 25.0519H152.421C152.455 25.6922 152.745 26.2735 153.293 26.7958C153.84 27.3182 154.755 27.5794 156.035 27.5794C157.232 27.5794 158.129 27.3308 158.727 26.8337C159.325 26.3367 159.624 25.7343 159.624 25.0266C159.624 24.3694 159.376 23.8597 158.879 23.4975C158.382 23.1352 157.661 22.9035 156.718 22.8024L155.201 22.6507C153.988 22.5159 153.006 22.141 152.257 21.526C151.507 20.911 151.132 20.0643 151.132 18.9859C151.132 18.1939 151.334 17.5031 151.738 16.9133C152.143 16.3236 152.712 15.8644 153.444 15.5358C154.177 15.2072 155.041 15.043 156.035 15.043C157.467 15.043 158.634 15.38 159.536 16.054C160.437 16.728 160.896 17.6884 160.913 18.9353H159.144C159.127 18.295 158.858 17.7558 158.335 17.3177C157.813 16.8796 157.046 16.6606 156.035 16.6606C155.024 16.6606 154.211 16.8881 153.697 17.343C153.183 17.798 152.926 18.354 152.926 19.0111C152.926 19.5672 153.12 20.0264 153.508 20.3886C153.895 20.7509 154.502 20.9742 155.327 21.0584L156.844 21.2101C158.192 21.3617 159.291 21.7492 160.142 22.3727C160.993 22.9961 161.419 23.8892 161.419 25.0519C161.419 25.8438 161.195 26.5557 160.749 27.1876C160.302 27.8195 159.675 28.3123 158.866 28.6662C158.057 29.02 157.114 29.1969 156.035 29.1969Z" fill="#231F20"/>
<path d="M165.008 28.8174V10.2402H168.597V28.8174H165.008ZM168.092 23.1558V20.0469H171.681C172.388 20.0469 172.991 19.9037 173.488 19.6173C173.985 19.3308 174.368 18.9348 174.638 18.4293C174.907 17.9238 175.042 17.3509 175.042 16.7106C175.042 16.0366 174.907 15.4469 174.638 14.9414C174.368 14.4359 173.985 14.0441 173.488 13.7661C172.991 13.4881 172.388 13.3491 171.681 13.3491H168.092V10.2402H171.377C172.928 10.2402 174.246 10.493 175.333 10.9985C176.42 11.504 177.25 12.2243 177.822 13.1595C178.395 14.0947 178.682 15.211 178.682 16.5084V16.9128C178.682 18.1766 178.395 19.2803 177.822 20.2239C177.25 21.1675 176.42 21.892 175.333 22.3975C174.246 22.903 172.928 23.1558 171.377 23.1558H168.092Z" fill="#231F20"/>
<path d="M179.819 12.9958V10.3672H185.051V12.9958H179.819ZM181.538 28.8179V10.3672H185.051V28.8179H181.538Z" fill="#231F20"/>
<path d="M195.212 29.298C194.032 29.298 193 29.0958 192.115 28.6914C191.231 28.287 190.498 27.7436 189.917 27.0612C189.335 26.3788 188.897 25.6163 188.602 24.7738C188.307 23.9313 188.16 23.072 188.16 22.1958V21.7155C188.16 20.8056 188.307 19.9253 188.602 19.0743C188.897 18.2234 189.331 17.4651 189.904 16.7996C190.477 16.134 191.197 15.6032 192.065 15.2073C192.933 14.8113 193.931 14.6133 195.06 14.6133C196.543 14.6133 197.785 14.9376 198.788 15.5864C199.791 16.2351 200.545 17.086 201.05 18.1391C201.556 19.1923 201.808 20.3254 201.808 21.5386V22.8276H189.651V20.654H199.584L198.523 21.7155C198.523 20.8393 198.392 20.0895 198.131 19.4661C197.87 18.8426 197.486 18.3624 196.981 18.0254C196.475 17.6884 195.835 17.5199 195.06 17.5199C194.285 17.5199 193.628 17.701 193.089 18.0633C192.549 18.4256 192.141 18.9353 191.863 19.5925C191.585 20.2496 191.446 21.0416 191.446 21.9683C191.446 22.8277 191.58 23.5901 191.85 24.2557C192.12 24.9213 192.532 25.4436 193.089 25.8227C193.645 26.2019 194.352 26.3914 195.212 26.3914C196.071 26.3914 196.745 26.2187 197.284 25.8733C197.823 25.5279 198.169 25.1024 198.32 24.5969H201.581C201.379 25.5405 200.991 26.3662 200.418 27.0739C199.845 27.7816 199.117 28.3292 198.232 28.7167C197.347 29.1043 196.341 29.298 195.212 29.298Z" fill="#231F20"/>
<path d="M210.427 29.2729C209.45 29.2729 208.561 29.096 207.761 28.7421C206.96 28.3883 206.265 27.8954 205.675 27.2635C205.086 26.6317 204.631 25.886 204.311 25.0267C203.99 24.1673 203.83 23.2406 203.83 22.2464V21.7157C203.83 20.7384 203.982 19.82 204.285 18.9607C204.589 18.1013 205.027 17.3515 205.6 16.7112C206.172 16.0709 206.855 15.5696 207.647 15.2074C208.439 14.8451 209.323 14.6639 210.301 14.6639C211.379 14.6639 212.331 14.8956 213.157 15.359C213.982 15.8224 214.635 16.5175 215.116 17.4442C215.596 18.371 215.861 19.5336 215.912 20.9321L214.875 19.7442V10.3672H218.414V28.8179H215.608V23.0047H216.215C216.164 24.3864 215.878 25.5448 215.356 26.48C214.833 27.4152 214.147 28.1145 213.296 28.5778C212.445 29.0412 211.489 29.2729 210.427 29.2729ZM211.211 26.3157C211.901 26.3157 212.529 26.1598 213.094 25.8481C213.658 25.5364 214.113 25.0814 214.458 24.4833C214.804 23.8851 214.977 23.1816 214.977 22.3728V21.3618C214.977 20.5699 214.8 19.8959 214.446 19.3398C214.092 18.7838 213.629 18.3583 213.056 18.0634C212.483 17.7686 211.868 17.6211 211.211 17.6211C210.452 17.6211 209.783 17.8065 209.201 18.1772C208.62 18.5479 208.165 19.0576 207.836 19.7063C207.508 20.355 207.344 21.1175 207.344 21.9937C207.344 22.8699 207.512 23.6323 207.849 24.2811C208.186 24.9298 208.645 25.4311 209.227 25.7849C209.808 26.1388 210.469 26.3157 211.211 26.3157Z" fill="#231F20"/>
<path d="M227.74 34.2522C227.083 34.2522 226.414 34.2269 225.731 34.1763C225.049 34.1258 224.421 34.0584 223.848 33.9742V31.017C224.438 31.0844 225.082 31.1476 225.782 31.2065C226.481 31.2655 227.125 31.295 227.715 31.295C228.861 31.295 229.784 31.1602 230.483 30.8906C231.182 30.621 231.692 30.1955 232.012 29.6142C232.332 29.0329 232.492 28.2957 232.492 27.4026V24.6982L233.25 22.9795C233.217 24.2601 232.964 25.3385 232.492 26.2147C232.02 27.0909 231.38 27.7607 230.571 28.2241C229.762 28.6875 228.827 28.9192 227.766 28.9192C226.822 28.9192 225.963 28.7465 225.188 28.401C224.413 28.0556 223.751 27.5669 223.204 26.9351C222.656 26.3032 222.235 25.5702 221.94 24.7362C221.645 23.9021 221.498 23.0048 221.498 22.0444V21.4883C221.498 20.5279 221.653 19.6306 221.965 18.7965C222.277 17.9624 222.719 17.2337 223.292 16.6102C223.865 15.9868 224.547 15.5066 225.339 15.1696C226.131 14.8326 227.007 14.6641 227.968 14.6641C229.08 14.6641 230.053 14.9084 230.887 15.397C231.721 15.8857 232.378 16.5934 232.859 17.5201C233.339 18.4469 233.596 19.5843 233.63 20.9323L233.023 21.0334V15.0937H235.828V27.2005C235.828 28.8686 235.542 30.2208 234.969 31.2571C234.396 32.2934 233.516 33.0516 232.328 33.5318C231.14 34.0121 229.611 34.2522 227.74 34.2522ZM228.777 25.9114C229.451 25.9114 230.066 25.7598 230.622 25.4565C231.178 25.1532 231.62 24.7151 231.949 24.1422C232.277 23.5693 232.442 22.8784 232.442 22.0696V21.2103C232.442 20.4183 232.269 19.7528 231.923 19.2136C231.578 18.6744 231.127 18.2658 230.571 17.9877C230.015 17.7097 229.417 17.5707 228.777 17.5707C228.035 17.5707 227.382 17.7434 226.818 18.0888C226.253 18.4342 225.811 18.9229 225.491 19.5548C225.171 20.1867 225.011 20.9239 225.011 21.7664C225.011 22.6088 225.171 23.3418 225.491 23.9653C225.811 24.5887 226.253 25.0689 226.818 25.4059C227.382 25.7429 228.035 25.9114 228.777 25.9114Z" fill="#231F20"/>
<path d="M245.812 29.298C244.632 29.298 243.6 29.0958 242.716 28.6914C241.831 28.287 241.098 27.7436 240.517 27.0612C239.936 26.3788 239.497 25.6163 239.203 24.7738C238.908 23.9313 238.76 23.072 238.76 22.1958V21.7155C238.76 20.8056 238.908 19.9253 239.203 19.0743C239.497 18.2234 239.931 17.4651 240.504 16.7996C241.077 16.134 241.797 15.6032 242.665 15.2073C243.533 14.8113 244.531 14.6133 245.66 14.6133C247.143 14.6133 248.386 14.9376 249.388 15.5864C250.391 16.2351 251.145 17.086 251.651 18.1391C252.156 19.1923 252.409 20.3254 252.409 21.5386V22.8276H240.251V20.654H250.185L249.123 21.7155C249.123 20.8393 248.992 20.0895 248.731 19.4661C248.47 18.8426 248.087 18.3624 247.581 18.0254C247.076 17.6884 246.435 17.5199 245.66 17.5199C244.885 17.5199 244.228 17.701 243.689 18.0633C243.15 18.4256 242.741 18.9353 242.463 19.5925C242.185 20.2496 242.046 21.0416 242.046 21.9683C242.046 22.8277 242.181 23.5901 242.45 24.2557C242.72 24.9213 243.133 25.4436 243.689 25.8227C244.245 26.2019 244.953 26.3914 245.812 26.3914C246.671 26.3914 247.345 26.2187 247.885 25.8733C248.424 25.5279 248.769 25.1024 248.921 24.5969H252.181C251.979 25.5405 251.592 26.3662 251.019 27.0739C250.446 27.7816 249.717 28.3292 248.832 28.7167C247.948 29.1043 246.941 29.298 245.812 29.298Z" fill="#231F20"/>
</svg>
