<svg width="16" height="16" viewBox="0 0 16 16" fill="none" xmlns="http://www.w3.org/2000/svg">
<g clip-path="url(#clip0_739_8468)">
<mask id="mask0_739_8468" style="mask-type:luminance" maskUnits="userSpaceOnUse" x="0" y="0" width="16" height="16">
<rect width="16" height="16" fill="white"/>
</mask>
<g mask="url(#mask0_739_8468)">
<path fill-rule="evenodd" clip-rule="evenodd" d="M6.83086 9.57578C7.27773 9.20703 7.71523 8.81328 8.12461 8.40078L8.31523 8.21016C8.22773 8.11953 8.14023 8.02891 8.05586 7.94453C6.49648 6.38516 4.69023 5.14453 2.68711 4.25391C2.11211 5.06953 1.71836 6.02266 1.56836 7.05391C2.57461 7.12578 3.54336 7.38203 4.44961 7.81953C5.34961 8.25391 6.14961 8.84453 6.83086 9.57578ZM10.191 5.8002C10.2066 5.81582 10.2254 5.83457 10.2441 5.8502C10.8973 4.89707 11.4566 3.8752 11.916 2.80645C10.8598 2.00957 9.55352 1.5252 8.13477 1.49707C8.20977 2.19395 8.38477 2.8752 8.65664 3.51895C9.01602 4.3752 9.53477 5.14395 10.191 5.8002ZM12.4689 7.33731C13.1158 7.6123 13.8002 7.7873 14.5002 7.85918C14.4627 6.0998 13.7252 4.5123 12.5564 3.3623C12.0877 4.41855 11.5158 5.43418 10.8564 6.38731C11.3502 6.77481 11.8939 7.09355 12.4689 7.33731ZM6.05937 9.94082C5.4 9.28145 4.63437 8.76582 3.78125 8.40332C3.05625 8.09707 2.29062 7.91582 1.50312 7.85957C1.50312 7.90644 1.5 7.95332 1.5 7.99707C1.5 9.51894 2.02188 10.9189 2.9 12.0252C4.06562 11.4939 5.17187 10.8408 6.19375 10.0752C6.14687 10.0314 6.10312 9.98457 6.05937 9.94082ZM8.86875 7.6127C9.18438 7.25957 9.48438 6.89082 9.76875 6.51582C8.37812 5.19395 7.51563 3.43457 7.325 1.53145C5.70312 1.7002 4.25938 2.4627 3.21563 3.6002C4.25938 4.07832 5.2625 4.65645 6.20312 5.32207C7.15625 6.0002 8.05312 6.76895 8.86875 7.6127ZM9.41875 8.2127C10.6344 9.5877 11.6344 11.1252 12.3969 12.7877C13.5344 11.7408 14.3 10.2939 14.4656 8.67207C12.975 8.5252 11.5656 7.96582 10.3781 7.04707C10.0781 7.44395 9.75313 7.8377 9.41875 8.2127ZM7.35352 10.1941C8.28789 11.4285 8.83789 12.8879 8.94726 14.4316C9.97851 14.2816 10.9316 13.8879 11.7441 13.3129C11.0129 11.6691 10.0473 10.1566 8.86289 8.80664C8.38789 9.29414 7.88164 9.75976 7.35352 10.1941ZM6.71562 10.6971C5.70312 11.4596 4.60938 12.1189 3.46563 12.6596C4.6375 13.8002 6.23438 14.5033 8 14.5033C8.04688 14.5033 8.09375 14.5033 8.14062 14.5002C8.08438 13.7127 7.90312 12.9471 7.59688 12.2221C7.36563 11.6752 7.07188 11.1658 6.71562 10.6971Z" fill="white"/>
</g>
</g>
<defs>
<clipPath id="clip0_739_8468">
<rect width="16" height="16" fill="white"/>
</clipPath>
</defs>
</svg>
