<svg width="18" height="18" viewBox="0 0 18 18" fill="none" xmlns="http://www.w3.org/2000/svg">
<mask id="mask0_739_4533" style="mask-type:alpha" maskUnits="userSpaceOnUse" x="0" y="0" width="18" height="18">
<path d="M0 0H18V18H0V0Z" fill="black"/>
</mask>
<g mask="url(#mask0_739_4533)">
<path d="M7.68516 10.7715C8.18789 10.3566 8.68008 9.91367 9.14062 9.44961L9.35508 9.23515C9.25664 9.1332 9.1582 9.03125 9.06328 8.93632C7.30899 7.18203 5.27695 5.78632 3.02344 4.78437C2.37656 5.70195 1.9336 6.77421 1.76484 7.93437C2.89688 8.01523 3.98672 8.30351 5.00625 8.7957C6.01875 9.28437 6.91875 9.94882 7.68516 10.7715ZM11.4644 6.52461C11.482 6.54218 11.5031 6.56328 11.5242 6.58086C12.259 5.50859 12.8883 4.35898 13.4051 3.15664C12.2168 2.26016 10.7473 1.71523 9.15117 1.68359C9.23555 2.46758 9.43242 3.23398 9.73828 3.9582C10.1426 4.92148 10.7262 5.78632 11.4644 6.52461ZM14.0273 8.25429C14.7551 8.56367 15.525 8.76054 16.3125 8.8414C16.2703 6.86211 15.4406 5.07617 14.1258 3.78242C13.5984 4.9707 12.9551 6.11328 12.2133 7.18554C12.7687 7.62148 13.3805 7.98007 14.0273 8.25429ZM6.8168 11.1828C6.075 10.441 5.21367 9.86093 4.25391 9.45312C3.43828 9.10859 2.57695 8.90468 1.69102 8.8414C1.69102 8.89414 1.6875 8.94687 1.6875 8.99609C1.6875 10.7082 2.27461 12.2832 3.2625 13.5277C4.57383 12.9301 5.81836 12.1953 6.96797 11.334C6.91523 11.2848 6.86602 11.232 6.8168 11.1828ZM9.97734 8.56367C10.3324 8.1664 10.6699 7.75156 10.9898 7.32968C9.42539 5.84257 8.45508 3.86328 8.24062 1.72227C6.41602 1.91211 4.7918 2.76992 3.61758 4.04961C4.7918 4.5875 5.92031 5.23789 6.97851 5.98671C8.05078 6.7496 9.05977 7.61445 9.97734 8.56367ZM10.5961 9.23867C11.9637 10.7855 13.0887 12.5152 13.9465 14.3856C15.2262 13.2078 16.0875 11.5801 16.2738 9.75546C14.5969 9.59023 13.0113 8.96093 11.6754 7.92734C11.3379 8.37382 10.9723 8.81679 10.5961 9.23867ZM8.27227 11.4676C9.32344 12.8563 9.94219 14.4981 10.0652 16.2348C11.2254 16.066 12.2977 15.6231 13.2117 14.9762C12.3891 13.127 11.3027 11.4254 9.97031 9.90664C9.43594 10.4551 8.86641 10.9789 8.27227 11.4676ZM7.55508 12.0336C6.41602 12.8914 5.18555 13.6332 3.89883 14.2414C5.21719 15.5246 7.01367 16.3156 9 16.3156C9.05273 16.3156 9.10547 16.3156 9.1582 16.3121C9.09492 15.4262 8.89102 14.5648 8.54648 13.7492C8.28633 13.134 7.95586 12.5609 7.55508 12.0336Z" fill="#003681"/>
</g>
</svg>
