<svg width="20" height="20" viewBox="0 0 20 20" fill="none" xmlns="http://www.w3.org/2000/svg">
<mask id="mask0_739_7171" style="mask-type:luminance" maskUnits="userSpaceOnUse" x="0" y="0" width="20" height="20">
<path d="M0 0.400391H19.2V19.6004H0V0.400391Z" fill="white"/>
</mask>
<g mask="url(#mask0_739_7171)">
<path d="M18.8998 10.0002C18.8998 4.8627 14.7372 0.700195 9.5998 0.700195C4.46231 0.700195 0.299805 4.8627 0.299805 10.0002C0.299805 14.6419 3.70068 18.4895 8.14668 19.1876V12.6886H5.78418V10.0002H8.14668V7.95119C8.14668 5.62057 9.53418 4.33319 11.6593 4.33319C12.6771 4.33319 13.7412 4.5147 13.7412 4.5147V6.8022H12.5682C11.4133 6.8022 11.0529 7.5192 11.0529 8.25457V10.0002H13.6322L13.2197 12.6886H11.0529V19.1876C15.4989 18.4895 18.8998 14.6419 18.8998 10.0002Z" fill="#0C1E4A"/>
</g>
</svg>
