<svg width="21" height="16" viewBox="0 0 21 16" fill="none" xmlns="http://www.w3.org/2000/svg">
<g clip-path="url(#clip0_739_8434)">
<mask id="mask0_739_8434" style="mask-type:luminance" maskUnits="userSpaceOnUse" x="0" y="0" width="21" height="16">
<rect x="0.328125" width="20" height="16" fill="white"/>
</mask>
<g mask="url(#mask0_739_8434)">
<path fill-rule="evenodd" clip-rule="evenodd" d="M19.7761 5.43026L11.0592 3.28776C10.5842 3.17101 10.0717 3.17101 9.59703 3.28776L0.879844 5.43026C0.144219 5.61101 0.144219 6.38926 0.879844 6.57001L2.39953 6.94351C2.06609 7.27326 1.86109 7.67551 1.84078 8.11601C1.53984 8.25401 1.32797 8.50301 1.32797 8.80026C1.32797 9.06976 1.50547 9.29651 1.76109 9.44151L0.963281 12.3135C0.893906 12.5633 1.13141 12.8003 1.45109 12.8003H3.20453C3.52453 12.8003 3.76203 12.5633 3.69266 12.3135L2.89484 9.44151C3.15047 9.29651 3.32797 9.06976 3.32797 8.80026C3.32797 8.51101 3.12578 8.26901 2.83859 8.12851C2.86234 7.75301 3.10234 7.42101 3.48516 7.21051L9.59672 8.71276C9.87984 8.78226 10.423 8.86901 11.0589 8.71276L19.7761 6.57026C20.512 6.38926 20.512 5.61126 19.7761 5.43026ZM11.3528 9.47695C10.4612 9.69595 9.70152 9.57495 9.30309 9.47695L4.77121 8.3632L4.32809 11.1997C4.32809 12.0835 7.01434 12.7997 10.3281 12.7997C13.6418 12.7997 16.3281 12.0835 16.3281 11.1997L15.885 8.36295L11.3528 9.47695Z" fill="#0C1E4A"/>
</g>
</g>
<defs>
<clipPath id="clip0_739_8434">
<rect width="20" height="16" fill="white" transform="translate(0.328125)"/>
</clipPath>
</defs>
</svg>
