<svg width="20" height="20" viewBox="0 0 20 20" fill="none" xmlns="http://www.w3.org/2000/svg">
<mask id="mask0_739_7183" style="mask-type:luminance" maskUnits="userSpaceOnUse" x="0" y="0" width="20" height="20">
<path d="M0.399902 0.400391H19.5999V19.6004H0.399902V0.400391Z" fill="white"/>
</mask>
<g mask="url(#mask0_739_7183)">
<path d="M10.0042 5.68781C7.61922 5.68781 5.69546 7.61156 5.69546 9.99656C5.69546 12.3816 7.61922 14.3053 10.0042 14.3053C12.3892 14.3053 14.313 12.3816 14.313 9.99656C14.313 7.61156 12.3892 5.68781 10.0042 5.68781ZM10.0042 12.7978C8.46296 12.7978 7.20296 11.5416 7.20296 9.99656C7.20296 8.45156 8.45922 7.19531 10.0042 7.19531C11.5492 7.19531 12.8055 8.45156 12.8055 9.99656C12.8055 11.5416 11.5455 12.7978 10.0042 12.7978ZM15.4943 5.51156C15.4943 6.07031 15.0443 6.51656 14.4893 6.51656C13.9304 6.51656 13.4842 6.06656 13.4842 5.51156C13.4842 4.95656 13.9343 4.50656 14.4893 4.50656C15.0443 4.50656 15.4943 4.95656 15.4943 5.51156ZM18.348 6.53156C18.2843 5.18531 17.9767 3.99281 16.9904 3.01031C16.008 2.02781 14.8154 1.72031 13.4692 1.65281C12.0817 1.57406 7.92296 1.57406 6.53546 1.65281C5.19296 1.71656 4.00046 2.02406 3.01422 3.00656C2.02797 3.98906 1.72422 5.18156 1.65672 6.52781C1.57797 7.91531 1.57797 12.0741 1.65672 13.4616C1.72047 14.8078 2.02797 16.0003 3.01422 16.9828C4.00046 17.9653 5.18922 18.2728 6.53546 18.3403C7.92296 18.4191 12.0817 18.4191 13.4692 18.3403C14.8154 18.2765 16.008 17.9691 16.9904 16.9828C17.973 16.0003 18.2804 14.8078 18.348 13.4616C18.4267 12.0741 18.4267 7.91906 18.348 6.53156ZM16.5554 14.9503C16.263 15.6853 15.6967 16.2515 14.958 16.5478C13.8517 16.9865 11.2267 16.8853 10.0042 16.8853C8.78172 16.8853 6.15296 16.9828 5.05046 16.5478C4.31546 16.2554 3.74922 15.6891 3.45296 14.9503C3.01422 13.8441 3.11546 11.2191 3.11546 9.99656C3.11546 8.77406 3.01796 6.14531 3.45296 5.04281C3.74546 4.30781 4.31172 3.74156 5.05046 3.44531C6.15672 3.00656 8.78172 3.10781 10.0042 3.10781C11.2267 3.10781 13.8554 3.01031 14.958 3.44531C15.693 3.73781 16.2593 4.30406 16.5554 5.04281C16.9943 6.14906 16.893 8.77406 16.893 9.99656C16.893 11.2191 16.9943 13.8478 16.5554 14.9503Z" fill="#0C1E4A"/>
</g>
</svg>
