<svg width="20" height="20" viewBox="0 0 20 20" fill="none" xmlns="http://www.w3.org/2000/svg">
<mask id="mask0_739_7189" style="mask-type:luminance" maskUnits="userSpaceOnUse" x="0" y="0" width="20" height="20">
<path d="M0.600098 0.400391H19.8001V19.6004H0.600098V0.400391Z" fill="white"/>
</mask>
<g mask="url(#mask0_739_7189)">
<path d="M17.3998 1.59961H2.99605C2.33605 1.59961 1.7998 2.14336 1.7998 2.81087V17.1883C1.7998 17.8559 2.33605 18.3996 2.99605 18.3996H17.3998C18.0598 18.3996 18.5998 17.8559 18.5998 17.1883V2.81087C18.5998 2.14336 18.0598 1.59961 17.3998 1.59961ZM6.8773 15.9996H4.3873V7.98211H6.88106V15.9996H6.8773ZM5.6323 6.88711C4.83355 6.88711 4.18855 6.23835 4.18855 5.44335C4.18855 4.64837 4.83356 3.99961 5.6323 3.99961C6.4273 3.99961 7.07605 4.64837 7.07605 5.44335C7.07605 6.24211 6.43106 6.88711 5.6323 6.88711ZM16.2111 15.9996H13.721V12.0996C13.721 11.1696 13.7023 9.97336 12.4273 9.97336C11.1298 9.97336 10.9311 10.9859 10.9311 12.0321V15.9996H8.44106V7.98211H10.8298V9.07711H10.8635C11.1973 8.44711 12.011 7.78335 13.2223 7.78335C15.7422 7.78335 16.2111 9.44461 16.2111 11.6046V15.9996Z" fill="#0C1E4A"/>
</g>
</svg>
