<svg width="17" height="20" viewBox="0 0 17 20" fill="none" xmlns="http://www.w3.org/2000/svg">
<g clip-path="url(#clip0_739_4748)">
<g clip-path="url(#clip1_739_4748)">
<mask id="mask0_739_4748" style="mask-type:luminance" maskUnits="userSpaceOnUse" x="0" y="4" width="17" height="16">
<rect x="0.796875" y="4" width="16" height="16" fill="white"/>
</mask>
<g mask="url(#mask0_739_4748)">
<path fill-rule="evenodd" clip-rule="evenodd" d="M7.78855 8.08594L5.62824 4.48562C5.5379 4.33499 5.4163 4.21639 5.26346 4.12984C5.11062 4.04328 4.94638 4 4.77074 4H1.2973C0.892614 4 0.655739 4.45531 0.887614 4.78687L4.3648 9.75437C5.29355 8.88656 6.4748 8.29094 7.78855 8.08594ZM16.2959 4H12.8224C12.4712 4 12.1455 4.18438 11.9649 4.48563L9.80461 8.08594C11.1184 8.29094 12.2996 8.88656 13.2284 9.75406L16.7055 4.78688C16.9374 4.45531 16.7005 4 16.2959 4ZM8.79679 9C5.75929 9 3.29679 11.4625 3.29679 14.5C3.29679 17.5375 5.75929 20 8.79679 20C11.8343 20 14.2968 17.5375 14.2968 14.5C14.2968 11.4625 11.8343 9 8.79679 9ZM11.6884 13.9145L10.5031 15.0695L10.7834 16.7014C10.8334 16.9939 10.5253 17.2173 10.2631 17.0792L8.79719 16.3089L7.33156 17.0792C7.06906 17.2183 6.76125 16.9936 6.81125 16.7014L7.09156 15.0695L5.90625 13.9145C5.69312 13.707 5.81094 13.3448 6.10469 13.3023L7.74312 13.0636L8.47531 11.5786C8.54125 11.4448 8.66875 11.3789 8.79656 11.3789C8.925 11.3789 9.05344 11.4458 9.11937 11.5786L9.85156 13.0636L11.49 13.3023C11.7837 13.3448 11.9016 13.707 11.6884 13.9145Z" fill="#0C1E4A"/>
</g>
</g>
</g>
<defs>
<clipPath id="clip0_739_4748">
<rect width="16" height="20" fill="white" transform="translate(0.796875)"/>
</clipPath>
<clipPath id="clip1_739_4748">
<rect width="16" height="16" fill="white" transform="translate(0.796875 4)"/>
</clipPath>
</defs>
</svg>
