<svg width="18" height="14" viewBox="0 0 18 14" fill="none" xmlns="http://www.w3.org/2000/svg">
<g clip-path="url(#clip0_739_4691)">
<path d="M9 2.25977C9.15533 2.25977 9.28791 2.31468 9.39775 2.42452C9.50758 2.53435 9.5625 2.66694 9.5625 2.82227V4.50977C9.5625 4.6651 9.50758 4.79768 9.39775 4.90752C9.28791 5.01735 9.15533 5.07227 9 5.07227C8.84467 5.07227 8.71209 5.01735 8.60225 4.90752C8.49242 4.79768 8.4375 4.6651 8.4375 4.50977V2.82227C8.4375 2.66694 8.49242 2.53435 8.60225 2.42452C8.71209 2.31468 8.84467 2.25977 9 2.25977ZM4.1985 4.20827C4.30833 4.09847 4.44089 4.04358 4.59619 4.04358C4.75148 4.04358 4.88405 4.09847 4.99388 4.20827L6.02325 5.23652C6.13322 5.34649 6.18821 5.47924 6.18821 5.63477C6.18821 5.7903 6.13322 5.92305 6.02325 6.03302C5.91328 6.14299 5.78053 6.19798 5.625 6.19798C5.46947 6.19798 5.33672 6.14299 5.22675 6.03302L4.1985 5.00365C4.0887 4.89382 4.03381 4.76125 4.03381 4.60596C4.03381 4.45066 4.08871 4.3181 4.1985 4.20827ZM2.25 9.00977C2.25 8.85444 2.30492 8.72186 2.41475 8.61202C2.52459 8.50219 2.65717 8.44727 2.8125 8.44727H4.59675C4.75208 8.44727 4.88466 8.50219 4.9945 8.61202C5.10433 8.72186 5.15925 8.85444 5.15925 9.00977C5.15925 9.1651 5.10433 9.29768 4.9945 9.40752C4.88466 9.51735 4.75208 9.57227 4.59675 9.57227H2.8125C2.65717 9.57227 2.52459 9.51735 2.41475 9.40752C2.30492 9.29768 2.25 9.1651 2.25 9.00977ZM12.9375 9.00977C12.9375 8.85444 12.9924 8.72186 13.1023 8.61202C13.2121 8.50219 13.3447 8.44727 13.5 8.44727H15.1875C15.3428 8.44727 15.4754 8.50219 15.5852 8.61202C15.6951 8.72186 15.75 8.85444 15.75 9.00977C15.75 9.1651 15.6951 9.29768 15.5852 9.40752C15.4754 9.51735 15.3428 9.57227 15.1875 9.57227H13.5C13.3447 9.57227 13.2121 9.51735 13.1023 9.40752C12.9924 9.29768 12.9375 9.1651 12.9375 9.00977ZM13.7857 4.23302C13.7049 4.15264 13.6076 4.11029 13.4937 4.10596C13.3798 4.10164 13.2795 4.13649 13.1929 4.21052L8.49038 8.23352C8.25835 8.42901 8.13718 8.67837 8.12686 8.9816C8.11653 9.28482 8.22047 9.54184 8.43866 9.75266C8.65685 9.96348 8.91729 10.0585 9.21998 10.0378C9.52268 10.017 9.76772 9.88738 9.95512 9.64877L13.8184 4.81465C13.888 4.72755 13.9196 4.62834 13.9134 4.51704C13.9072 4.40573 13.8646 4.31181 13.7857 4.23302Z" fill="#1E40AF"/>
<path fill-rule="evenodd" clip-rule="evenodd" d="M6.02049e-06 9.00926C0.00250831 6.22221 1.06942 3.93075 3.20073 2.13487C5.33204 0.338994 7.77125 -0.323849 10.5183 0.146341C13.2655 0.616531 15.3454 2.05286 16.7581 4.45533C18.1708 6.8578 18.4149 9.37365 17.4904 12.0029C16.9931 13.4125 15.4148 13.8051 14.1919 13.4091C12.7226 12.9333 10.6594 12.3843 9.00001 12.3843C7.34176 12.3843 5.27626 12.9333 3.80813 13.4091C2.58526 13.8051 1.00688 13.4125 0.509631 12.0029C0.340398 11.522 0.213005 11.0303 0.127453 10.5278C0.0419003 10.0252 -0.000581975 9.51904 6.02049e-06 9.00926ZM9.00001 1.13426C6.28307 1.13356 4.13978 2.24203 2.57014 4.45969C1.0005 6.67734 0.667666 9.06724 1.57163 11.6294C1.80001 12.2763 2.61001 12.6149 3.46163 12.3381C4.94663 11.8589 7.15276 11.2593 9.00001 11.2593C10.8473 11.2593 13.0545 11.8578 14.5384 12.3393C15.39 12.6149 16.2 12.2763 16.4284 11.6294C17.3323 9.06724 16.9995 6.67734 15.4299 4.45969C13.8602 2.24203 11.7169 1.13356 9.00001 1.13426Z" fill="#003681"/>
</g>
<defs>
<clipPath id="clip0_739_4691">
<rect width="18" height="13.5548" fill="white"/>
</clipPath>
</defs>
</svg>
