<svg width="128" height="128" viewBox="0 0 128 128" fill="none" xmlns="http://www.w3.org/2000/svg">
<g clip-path="url(#clip0_739_7152)">
<mask id="mask0_739_7152" style="mask-type:luminance" maskUnits="userSpaceOnUse" x="0" y="0" width="128" height="128">
<rect width="128" height="128" fill="white"/>
</mask>
<g mask="url(#mask0_739_7152)">
<path fill-rule="evenodd" clip-rule="evenodd" d="M8 56H56V8H8V56ZM24 24H40V40H24V24ZM72 8V56H120V8H72ZM104 40H88V24H104V40ZM8 120H56V72H8V120ZM24 88H40V104H24V88ZM112 72H120V104H96V96H88V120H72V72H96V80H112V72ZM112 112H120V120H112V112ZM96 112H104V120H96V112Z" fill="white"/>
</g>
</g>
<defs>
<clipPath id="clip0_739_7152">
<rect width="128" height="128" fill="white"/>
</clipPath>
</defs>
</svg>
