<svg width="20" height="16" viewBox="0 0 20 16" fill="none" xmlns="http://www.w3.org/2000/svg">
<g clip-path="url(#clip0_739_8376)">
<mask id="mask0_739_8376" style="mask-type:luminance" maskUnits="userSpaceOnUse" x="0" y="0" width="20" height="16">
<rect width="20" height="16" fill="white"/>
</mask>
<g mask="url(#mask0_739_8376)">
<path d="M19.7248 4.01211L13.6404 1.59961C13.0123 2.29461 11.6217 2.77961 9.99981 2.77961C8.37793 2.77961 6.98731 2.29461 6.35918 1.59961L0.274805 4.01211C0.0279297 4.11211 -0.0720703 4.35211 0.0498047 4.54961L1.8373 7.41211C1.9623 7.60961 2.2623 7.68961 2.50918 7.59211L4.27793 6.89961C4.60918 6.76961 4.99668 6.96211 4.99668 7.25961V13.5996C4.99668 14.0421 5.44355 14.3996 5.99668 14.3996H13.9967C14.5498 14.3996 14.9967 14.0421 14.9967 13.5996V7.25711C14.9967 6.96211 15.3842 6.76711 15.7154 6.89711L17.4842 7.58961C17.7311 7.68961 18.0311 7.60961 18.1561 7.40961L19.9467 4.54961C20.0717 4.35211 19.9717 4.10961 19.7248 4.01211Z" fill="#0C1E4A"/>
</g>
</g>
<defs>
<clipPath id="clip0_739_8376">
<rect width="20" height="16" fill="white"/>
</clipPath>
</defs>
</svg>
