<svg width="21" height="16" viewBox="0 0 21 16" fill="none" xmlns="http://www.w3.org/2000/svg">
<g clip-path="url(#clip0_739_8403)">
<mask id="mask0_739_8403" style="mask-type:luminance" maskUnits="userSpaceOnUse" x="0" y="0" width="21" height="16">
<rect x="0.65625" width="20" height="16" fill="white"/>
</mask>
<g mask="url(#mask0_739_8403)">
<path fill-rule="evenodd" clip-rule="evenodd" d="M6.65625 5.59969H7.65625V2.39969H6.65625C5.55156 2.39969 4.65625 3.11594 4.65625 3.99969C4.65625 4.88344 5.55156 5.59969 6.65625 5.59969ZM0.65625 11.9997C0.65625 12.8834 1.55156 13.5997 2.65625 13.5997H3.65625V10.3997H2.65625C1.55156 10.3997 0.65625 11.1159 0.65625 11.9997ZM11.2019 8.80008C10.1109 8.80008 8.82188 9.12808 7.92906 9.60008C7.15437 10.0096 6.53781 10.4001 4.65625 10.4001V13.6001L6.45406 13.9993C7.27312 14.1813 8.11062 14.3273 8.96375 14.3756C9.98531 14.4333 11.0138 14.3923 12.0131 14.2206C15.4344 13.6326 16.6562 12.3306 16.6562 11.2001C16.6562 9.60008 14.0256 8.80008 11.2019 8.80008ZM16.0131 1.7793C15.0138 1.60755 13.9853 1.5663 12.9637 1.6243C12.1106 1.67255 11.2731 1.81855 10.4541 2.0003L8.65625 2.39955V5.59955C10.5375 5.59955 11.1544 5.99005 11.9291 6.39955C12.8219 6.87155 14.1109 7.19955 15.2019 7.19955C18.0256 7.19955 20.6562 6.39955 20.6562 4.79955C20.6562 3.66905 19.4344 2.36705 16.0131 1.7793Z" fill="#0C1E4A"/>
</g>
</g>
<defs>
<clipPath id="clip0_739_8403">
<rect width="20" height="16" fill="white" transform="translate(0.65625)"/>
</clipPath>
</defs>
</svg>
