<svg width="18" height="18" viewBox="0 0 18 18" fill="none" xmlns="http://www.w3.org/2000/svg">
<mask id="mask0_739_4609" style="mask-type:luminance" maskUnits="userSpaceOnUse" x="0" y="0" width="18" height="18">
<path d="M0 0H18V18H0V0Z" fill="white"/>
</mask>
<g mask="url(#mask0_739_4609)">
<mask id="mask1_739_4609" style="mask-type:alpha" maskUnits="userSpaceOnUse" x="0" y="0" width="18" height="18">
<path d="M0 0H18V18H0V0Z" fill="black"/>
</mask>
<g mask="url(#mask1_739_4609)">
<path d="M11.7 11.25H13.05C13.275 11.25 13.5 11.025 13.5 10.8V6.075C13.5 5.85 13.275 5.625 13.05 5.625H11.7C11.475 5.625 11.25 5.85 11.25 6.075V10.8C11.25 11.025 11.475 11.25 11.7 11.25ZM15.075 11.25H16.425C16.65 11.25 16.875 11.025 16.875 10.8V2.7C16.875 2.475 16.65 2.25 16.425 2.25H15.075C14.85 2.25 14.625 2.475 14.625 2.7V10.8C14.625 11.025 14.85 11.25 15.075 11.25ZM4.95 11.25H6.3C6.525 11.25 6.75 11.025 6.75 10.8V8.325C6.75 8.1 6.525 7.875 6.3 7.875H4.95C4.725 7.875 4.5 8.1 4.5 8.325V10.8C4.5 11.025 4.725 11.25 4.95 11.25ZM8.325 11.25H9.675C9.9 11.25 10.125 11.025 10.125 10.8V3.825C10.125 3.6 9.9 3.375 9.675 3.375H8.325C8.1 3.375 7.875 3.6 7.875 3.825V10.8C7.875 11.025 8.1 11.25 8.325 11.25ZM17.4375 13.5H2.25V2.8125C2.25 2.50172 1.99828 2.25 1.6875 2.25H0.5625C0.251719 2.25 0 2.50172 0 2.8125V14.625C0 15.2462 0.503789 15.75 1.125 15.75H17.4375C17.7483 15.75 18 15.4983 18 15.1875V14.0625C18 13.7517 17.7483 13.5 17.4375 13.5Z" fill="#003681"/>
</g>
</g>
</svg>
