<svg width="20" height="20" viewBox="0 0 20 20" fill="none" xmlns="http://www.w3.org/2000/svg">
<mask id="mask0_739_7177" style="mask-type:luminance" maskUnits="userSpaceOnUse" x="0" y="0" width="20" height="20">
<path d="M0.200195 0.400391H19.4002V19.6004H0.200195V0.400391Z" fill="white"/>
</mask>
<g mask="url(#mask0_739_7177)">
<path d="M17.4266 6.0894C17.4388 6.25995 17.4388 6.43053 17.4388 6.60109C17.4388 11.8031 13.4794 17.797 6.24283 17.797C4.01339 17.797 1.94233 17.1513 0.200195 16.0305C0.516958 16.0671 0.821495 16.0792 1.15045 16.0792C2.99 16.0792 4.68343 15.458 6.03572 14.398C4.30577 14.3615 2.85602 13.2285 2.35652 11.6691C2.6002 11.7056 2.84383 11.73 3.0997 11.73C3.45299 11.73 3.8063 11.6813 4.13522 11.596C2.33219 11.2305 0.979858 9.64676 0.979858 7.73408V7.68536C1.5037 7.97775 2.11289 8.16049 2.75852 8.18482C1.69862 7.47822 1.00423 6.27213 1.00423 4.90766C1.00423 4.17672 1.19912 3.50666 1.54026 2.92189C3.47732 5.3097 6.389 6.86906 9.65395 7.03965C9.59305 6.74726 9.55649 6.44273 9.55649 6.13815C9.55649 3.9696 11.3108 2.20312 13.4915 2.20312C14.6246 2.20312 15.6478 2.67825 16.3666 3.44576C17.2559 3.27521 18.1088 2.94626 18.864 2.49551C18.5717 3.40923 17.9504 4.17675 17.1341 4.66403C17.926 4.57879 18.6935 4.35945 19.4001 4.05492C18.8642 4.83458 18.1941 5.52896 17.4266 6.0894Z" fill="#0C1E4A"/>
</g>
</svg>
