<svg width="20" height="18" viewBox="0 0 20 18" fill="none" xmlns="http://www.w3.org/2000/svg">
<mask id="mask0_739_7195" style="mask-type:luminance" maskUnits="userSpaceOnUse" x="0" y="0" width="20" height="18">
<path d="M0.799805 0.466797H19.9998V17.5334H0.799805V0.466797Z" fill="white"/>
</mask>
<g mask="url(#mask0_739_7195)">
<path d="M19.603 4.19053C19.3844 3.32829 18.7407 2.64921 17.9232 2.41876C16.4414 2 10.5 2 10.5 2C10.5 2 4.55857 2 3.07682 2.41876C2.25937 2.64925 1.61554 3.32829 1.39702 4.19053C1 5.75339 1 9.01415 1 9.01415C1 9.01415 1 12.2749 1.39702 13.8378C1.61554 14.7 2.25937 15.3508 3.07682 15.5812C4.55857 16 10.5 16 10.5 16C10.5 16 16.4414 16 17.9232 15.5812C18.7407 15.3508 19.3844 14.7 19.603 13.8378C20 12.2749 20 9.01415 20 9.01415C20 9.01415 20 5.75339 19.603 4.19053ZM8.5568 11.9747V6.05362L13.5227 9.01422L8.5568 11.9747Z" fill="#0C1E4A"/>
</g>
</svg>
