<svg width="16" height="16" viewBox="0 0 16 16" fill="none" xmlns="http://www.w3.org/2000/svg">
<mask id="mask0_739_2590" style="mask-type:luminance" maskUnits="userSpaceOnUse" x="0" y="0" width="16" height="16">
<path d="M0 0H16V16H0V0Z" fill="white"/>
</mask>
<g mask="url(#mask0_739_2590)">
<path d="M8.00352 4.40684C6.01602 4.40684 4.41289 6.00996 4.41289 7.99746C4.41289 9.98496 6.01602 11.5881 8.00352 11.5881C9.99102 11.5881 11.5941 9.98496 11.5941 7.99746C11.5941 6.00996 9.99102 4.40684 8.00352 4.40684ZM8.00352 10.3318C6.71914 10.3318 5.66914 9.28496 5.66914 7.99746C5.66914 6.70996 6.71602 5.66309 8.00352 5.66309C9.29102 5.66309 10.3379 6.70996 10.3379 7.99746C10.3379 9.28496 9.28789 10.3318 8.00352 10.3318ZM12.5785 4.25996C12.5785 4.72559 12.2035 5.09746 11.741 5.09746C11.2753 5.09746 10.9035 4.72246 10.9035 4.25996C10.9035 3.79746 11.2785 3.42246 11.741 3.42246C12.2035 3.42246 12.5785 3.79746 12.5785 4.25996ZM14.9566 5.10996C14.9035 3.98809 14.6472 2.99434 13.8253 2.17559C13.0066 1.35684 12.0128 1.10059 10.891 1.04434C9.73477 0.978711 6.26914 0.978711 5.11289 1.04434C3.99414 1.09746 3.00039 1.35371 2.17852 2.17246C1.35664 2.99121 1.10352 3.98496 1.04727 5.10684C0.981641 6.26309 0.981641 9.72871 1.04727 10.885C1.10039 12.0068 1.35664 13.0006 2.17852 13.8193C3.00039 14.6381 3.99102 14.8943 5.11289 14.9506C6.26914 15.0162 9.73477 15.0162 10.891 14.9506C12.0128 14.8974 13.0066 14.6412 13.8253 13.8193C14.6441 13.0006 14.9003 12.0068 14.9566 10.885C15.0222 9.72871 15.0222 6.26621 14.9566 5.10996ZM13.4628 12.1256C13.2191 12.7381 12.7472 13.2099 12.1316 13.4568C11.2097 13.8224 9.02227 13.7381 8.00352 13.7381C6.98477 13.7381 4.79414 13.8193 3.87539 13.4568C3.26289 13.2131 2.79102 12.7412 2.54414 12.1256C2.17852 11.2037 2.26289 9.01621 2.26289 7.99746C2.26289 6.97871 2.18164 4.78809 2.54414 3.86934C2.78789 3.25684 3.25977 2.78496 3.87539 2.53809C4.79727 2.17246 6.98477 2.25684 8.00352 2.25684C9.02227 2.25684 11.2128 2.17559 12.1316 2.53809C12.7441 2.78184 13.216 3.25371 13.4628 3.86934C13.8285 4.79121 13.7441 6.97871 13.7441 7.99746C13.7441 9.01621 13.8285 11.2068 13.4628 12.1256Z" fill="#EF6C2F"/>
</g>
</svg>
