<svg width="16" height="16" viewBox="0 0 16 16" fill="none" xmlns="http://www.w3.org/2000/svg">
<mask id="mask0_739_2602" style="mask-type:luminance" maskUnits="userSpaceOnUse" x="0" y="0" width="16" height="16">
<path d="M0 0.888672H16V15.1109H0V0.888672Z" fill="white"/>
</mask>
<g mask="url(#mask0_739_2602)">
<path d="M15.2675 4.74232C15.093 4.15837 14.579 3.69847 13.9263 3.54239C12.7432 3.25879 7.99926 3.25879 7.99926 3.25879C7.99926 3.25879 3.25537 3.25879 2.07228 3.54239C1.41959 3.69849 0.905535 4.15837 0.731063 4.74232C0.414062 5.80077 0.414062 8.00911 0.414062 8.00911C0.414062 8.00911 0.414062 10.2175 0.731063 11.2759C0.905535 11.8598 1.41959 12.3006 2.07228 12.4567C3.25537 12.7403 7.99926 12.7403 7.99926 12.7403C7.99926 12.7403 12.7432 12.7403 13.9263 12.4567C14.579 12.3006 15.093 11.8598 15.2675 11.2759C15.5845 10.2175 15.5845 8.00911 15.5845 8.00911C15.5845 8.00911 15.5845 5.80077 15.2675 4.74232ZM6.44773 10.0141V6.0041L10.4127 8.00916L6.44773 10.0141Z" fill="#EF6C2F"/>
</g>
</svg>
