<svg width="30" height="37" viewBox="0 0 30 37" fill="none" xmlns="http://www.w3.org/2000/svg">
<path d="M19.5 7.56055C21.364 7.56055 22.875 6.04953 22.875 4.18555C22.875 2.32157 21.364 0.810547 19.5 0.810547C17.636 0.810547 16.125 2.32157 16.125 4.18555C16.125 6.04953 17.636 7.56055 19.5 7.56055ZM8.36883 23.1326L7.3282 25.5598H2.625C1.38258 25.5598 0.375 26.5674 0.375 27.8098C0.375 29.0522 1.38258 30.0598 2.625 30.0598H8.0707C9.42422 30.0598 10.6427 29.2554 11.1722 28.0144L11.7902 26.5716L11.04 26.1286C9.82219 25.4093 8.92641 24.3448 8.36883 23.1326ZM27.375 16.5598H24.2791L22.4468 12.8157C21.5679 11.0192 19.9542 9.70579 18.1029 9.23399L13.1051 7.74758C11.1152 7.26946 9.04313 7.70891 7.42102 8.95274L4.63172 11.0909C3.64524 11.8468 3.4582 13.2586 4.21547 14.2451C4.97274 15.2316 6.38391 15.4165 7.36969 14.6614L10.1604 12.5232C10.6997 12.109 11.3866 11.9607 11.9372 12.0914L12.9708 12.3987L10.3369 18.5433C9.44953 20.6161 10.2448 23.044 12.1861 24.1901L18.1613 27.7177L16.2298 33.8862C15.8585 35.0717 16.5188 36.3338 17.7042 36.705C17.9285 36.7753 18.1549 36.8091 18.3778 36.8091C19.3348 36.8091 20.2221 36.1925 20.5238 35.2306L22.7484 28.1248C23.164 26.6644 22.5452 25.0957 21.2269 24.3005L16.9209 21.7594L19.1224 16.2553L20.5477 19.1684C21.1102 20.3173 22.2998 21.0591 23.5788 21.0591H27.375C28.6174 21.0591 29.625 20.0515 29.625 18.8091C29.625 17.5667 28.6174 16.5598 27.375 16.5598Z" fill="#F97316"/>
</svg>
