<svg width="16" height="20" viewBox="0 0 16 20" fill="none" xmlns="http://www.w3.org/2000/svg">
<mask id="mask0_739_2393" style="mask-type:luminance" maskUnits="userSpaceOnUse" x="0" y="0" width="16" height="20">
<path d="M0.000244141 0.959961H15.3152V19.9165H0.000244141V0.959961Z" fill="white"/>
</mask>
<g mask="url(#mask0_739_2393)">
<path d="M14.8366 15.1769H1.91461V3.92149C1.91461 3.5942 1.70044 3.3291 1.43602 3.3291H0.478836C0.214414 3.3291 0.000244141 3.5942 0.000244141 3.92149V16.3617C0.000244141 17.016 0.428882 17.5465 0.957428 17.5465H14.8366C15.101 17.5465 15.3152 17.2813 15.3152 16.9541V15.7693C15.3152 15.4421 15.101 15.1769 14.8366 15.1769ZM13.8794 4.51388H10.348C9.70848 4.51388 9.38812 5.47096 9.84038 6.03077L10.8095 7.23037L8.6149 9.94723L6.42026 7.23075C6.04635 6.76793 5.44034 6.76793 5.06674 7.23075L3.01208 9.77395C2.82513 10.0054 2.82513 10.3804 3.01208 10.6118L3.68869 11.4493C3.87564 11.6807 4.17865 11.6807 4.3656 11.4493L5.74335 9.74359L7.93799 12.4601C8.31189 12.9229 8.9179 12.9229 9.2915 12.4601L12.1631 8.90572L13.1322 10.1053C13.5845 10.6651 14.3577 10.2686 14.3577 9.47701V5.10628C14.358 4.77898 14.1438 4.51388 13.8794 4.51388Z" fill="#767676"/>
</g>
</svg>
