<svg width="24" height="28" viewBox="0 0 24 28" fill="none" xmlns="http://www.w3.org/2000/svg">
<mask id="mask0_739_2216" style="mask-type:luminance" maskUnits="userSpaceOnUse" x="0" y="4" width="24" height="24">
<path d="M0 4H24V28H0V4Z" fill="white"/>
</mask>
<g mask="url(#mask0_739_2216)">
<path d="M8.00241 14.1476L6.6375 15.5125L11.025 19.9L20.775 10.15L19.4101 8.78509L11.025 17.1212L8.00241 14.1476ZM19.8 16C19.8 20.2899 16.2899 23.8 12 23.8C7.71014 23.8 4.2 20.2899 4.2 16C4.2 11.7101 7.71009 8.2 12 8.2C12.7313 8.2 13.4625 8.29759 14.1452 8.49255L15.6562 6.98125C14.5351 6.49375 13.3163 6.25 12 6.25C6.6375 6.25 2.25 10.6375 2.25 16C2.25 21.3625 6.6375 25.75 12 25.75C17.3625 25.75 21.75 21.3625 21.75 16H19.8Z" fill="#EF6C2F"/>
</g>
</svg>
