<svg width="16" height="17" viewBox="0 0 16 17" fill="none" xmlns="http://www.w3.org/2000/svg">
<mask id="mask0_739_2378" style="mask-type:luminance" maskUnits="userSpaceOnUse" x="0" y="0" width="16" height="17">
<path d="M0.000244141 0.191406H15.3152V16.1548H0.000244141V0.191406Z" fill="white"/>
</mask>
<g mask="url(#mask0_739_2378)">
<path d="M7.65755 0.44043C3.55961 0.44043 0.23938 3.90124 0.23938 8.1727C0.23938 12.4441 3.55961 15.905 7.65755 15.905C11.7554 15.905 15.0757 12.4441 15.0757 8.1727C15.0757 3.90124 11.7554 0.44043 7.65755 0.44043ZM10.4241 10.1993L9.82586 10.9788C9.74331 11.0863 9.63636 11.1478 9.505 11.1629C9.37364 11.1782 9.25636 11.1428 9.15315 11.0567L7.14905 9.50651C7.00722 9.38816 6.89698 9.24362 6.81832 9.07292C6.73966 8.90222 6.70035 8.72218 6.70037 8.53281V3.68299C6.70037 3.54524 6.7471 3.42766 6.84055 3.33025C6.934 3.23285 7.0468 3.18414 7.17896 3.18414H8.13615C8.2683 3.18414 8.38111 3.23285 8.47456 3.33025C8.56801 3.42766 8.61474 3.54524 8.61474 3.68299V8.1727L10.3496 9.49778C10.4529 9.58389 10.5118 9.69545 10.5263 9.83245C10.5409 9.96946 10.5068 10.0917 10.4241 10.1993Z" fill="#767676"/>
</g>
</svg>
