<svg width="36" height="21" viewBox="0 0 36 21" fill="none" xmlns="http://www.w3.org/2000/svg">
<path d="M34.9402 1.74117C32.7583 1.00902 30.5747 0.730469 28.3922 0.730469C21.4639 0.730019 14.5361 3.53577 7.60781 3.53577C5.87025 3.53577 4.13381 3.35937 2.39625 2.91837C2.20106 2.86887 2.00531 2.84547 1.81406 2.84547C0.846 2.84547 0 3.44487 0 4.27692V18.5536C0 19.122 0.406687 19.6606 1.05975 19.8793C3.24169 20.6119 5.42531 20.8905 7.60781 20.8905C14.5361 20.8905 21.4644 18.0847 28.3927 18.0847C30.1303 18.0847 31.8667 18.2611 33.6043 18.7021C33.7995 18.7516 33.9953 18.775 34.1865 18.775C35.1546 18.775 36.0006 18.1756 36.0006 17.3436V3.06732C36 2.49852 35.5933 1.96032 34.9402 1.74117ZM2.7 5.24037C3.83175 5.46717 5.013 5.58102 6.228 5.64222C5.89725 6.96477 4.44375 7.96152 2.7 7.96152V5.24037ZM2.7 18.0654V15.9153C4.63331 15.9153 6.19762 17.1424 6.28369 18.6783C5.01637 18.5968 3.83175 18.3943 2.7 18.0654ZM18 15.1305C15.5143 15.1305 13.5 13.1959 13.5 10.8105C13.5 8.42457 15.5149 6.49047 18 6.49047C20.4851 6.49047 22.5 8.42457 22.5 10.8105C22.5 13.1968 20.4846 15.1305 18 15.1305ZM33.3 16.3806C32.3145 16.183 31.2913 16.0723 30.2445 16.0008C30.5747 14.8272 31.7914 13.9362 33.3 13.7832V16.3806ZM33.3 5.75562C31.5624 5.57967 30.2141 4.41912 30.1607 2.98587C31.2598 3.08352 32.3032 3.26622 33.3 3.55557V5.75562Z" fill="#F97316"/>
</svg>
