<svg width="38" height="18" viewBox="0 0 38 18" fill="none" xmlns="http://www.w3.org/2000/svg">
<path d="M25.5394 0.0527344H20.6418C20.1857 0.0527344 19.7467 0.18957 19.4103 0.435873L13.8057 4.54093C13.8 4.54549 13.7944 4.55461 13.7887 4.55918C12.8422 5.27072 12.8593 6.40645 13.6689 7.11343C14.393 7.74744 15.9153 7.9162 16.8674 7.23659C16.8731 7.23202 16.8845 7.23202 16.8902 7.22746L21.4457 3.88868C21.8162 3.61957 22.3978 3.63782 22.7343 3.93429C23.0763 4.23077 23.0478 4.69145 22.6772 4.96512L21.1891 6.05524L29.4905 11.4466C29.6558 11.556 29.8041 11.6746 29.9409 11.7978V2.97189L26.8279 0.481485C26.4914 0.207814 26.024 0.0527344 25.5394 0.0527344ZM31.7711 2.98101V13.1935C31.7711 14.0008 32.5864 14.6531 33.5955 14.6531H37.2445V2.98101H31.7711ZM34.5078 13.1935C34.006 13.1935 33.5955 12.8651 33.5955 12.4637C33.5955 12.0623 34.006 11.7339 34.5078 11.7339C35.0095 11.7339 35.42 12.0623 35.42 12.4637C35.42 12.8651 35.0095 13.1935 34.5078 13.1935ZM0.755066 14.6485H4.40401C5.41316 14.6485 6.22848 13.9962 6.22848 13.1889V2.98101H0.755066V14.6485ZM3.49177 11.7339C3.9935 11.7339 4.40401 12.0623 4.40401 12.4637C4.40401 12.8651 3.9935 13.1935 3.49177 13.1935C2.99004 13.1935 2.57954 12.8651 2.57954 12.4637C2.57954 12.0577 2.99004 11.7339 3.49177 11.7339ZM28.3445 12.5823L19.8321 7.05414L18.1217 8.30846C16.4284 9.54454 13.8342 9.42595 12.3233 8.10777C10.7897 6.76678 10.9094 4.69145 12.5742 3.46905L17.238 0.0527344H12.4602C11.9756 0.0527344 11.5138 0.207814 11.1717 0.481485L8.05295 2.97189V13.1844H9.09631L14.2561 16.92C15.8183 17.9371 18.116 17.7455 19.3875 16.4958L19.3988 16.4866L20.4194 17.1936C21.326 17.7866 22.6658 17.6726 23.4013 16.9473L25.1915 15.1867L25.4994 15.3874C26.2805 15.8937 27.4323 15.8025 28.0651 15.173L28.6067 14.6394C29.2453 14.0099 29.1256 13.0931 28.3445 12.5823Z" fill="#F97316"/>
</svg>
