<svg width="28" height="36" viewBox="0 0 28 36" fill="none" xmlns="http://www.w3.org/2000/svg">
<path d="M24.2723 5.12305H18.6178C18.6178 2.74443 16.5893 0.810547 14.0942 0.810547C11.5992 0.810547 9.57064 2.74443 9.57064 5.12305H3.91614C2.04309 5.12305 0.523438 6.57178 0.523438 8.35742V32.0762C0.523438 33.8618 2.04309 35.3105 3.91614 35.3105H24.2723C26.1454 35.3105 27.665 33.8618 27.665 32.0762V8.35742C27.665 6.57178 26.1454 5.12305 24.2723 5.12305ZM7.30884 29.3809C6.36877 29.3809 5.61249 28.6599 5.61249 27.7637C5.61249 26.8674 6.36877 26.1465 7.30884 26.1465C8.2489 26.1465 9.00519 26.8674 9.00519 27.7637C9.00519 28.6599 8.2489 29.3809 7.30884 29.3809ZM7.30884 22.9121C6.36877 22.9121 5.61249 22.1912 5.61249 21.2949C5.61249 20.3987 6.36877 19.6777 7.30884 19.6777C8.2489 19.6777 9.00519 20.3987 9.00519 21.2949C9.00519 22.1912 8.2489 22.9121 7.30884 22.9121ZM7.30884 16.4434C6.36877 16.4434 5.61249 15.7224 5.61249 14.8262C5.61249 13.9299 6.36877 13.209 7.30884 13.209C8.2489 13.209 9.00519 13.9299 9.00519 14.8262C9.00519 15.7224 8.2489 16.4434 7.30884 16.4434ZM14.0942 3.50586C15.0343 3.50586 15.7906 4.22685 15.7906 5.12305C15.7906 6.01924 15.0343 6.74023 14.0942 6.74023C13.1541 6.74023 12.3979 6.01924 12.3979 5.12305C12.3979 4.22685 13.1541 3.50586 14.0942 3.50586ZM23.1414 28.3027C23.1414 28.5992 22.887 28.8418 22.576 28.8418H12.3979C12.0869 28.8418 11.8324 28.5992 11.8324 28.3027V27.2246C11.8324 26.9281 12.0869 26.6855 12.3979 26.6855H22.576C22.887 26.6855 23.1414 26.9281 23.1414 27.2246V28.3027ZM23.1414 21.834C23.1414 22.1305 22.887 22.373 22.576 22.373H12.3979C12.0869 22.373 11.8324 22.1305 11.8324 21.834V20.7559C11.8324 20.4594 12.0869 20.2168 12.3979 20.2168H22.576C22.887 20.2168 23.1414 20.4594 23.1414 20.7559V21.834ZM23.1414 15.3652C23.1414 15.6617 22.887 15.9043 22.576 15.9043H12.3979C12.0869 15.9043 11.8324 15.6617 11.8324 15.3652V14.2871C11.8324 13.9906 12.0869 13.748 12.3979 13.748H22.576C22.887 13.748 23.1414 13.9906 23.1414 14.2871V15.3652Z" fill="#F97316"/>
</svg>
