<svg width="17" height="18" viewBox="0 0 17 18" fill="none" xmlns="http://www.w3.org/2000/svg">
<mask id="mask0_739_2383" style="mask-type:luminance" maskUnits="userSpaceOnUse" x="0" y="0" width="17" height="18">
<path d="M0.956787 0.116211H16.2717V17.4763H0.956787V0.116211Z" fill="white"/>
</mask>
<g mask="url(#mask0_739_2383)">
<path d="M3.25403 7.92775C4.09874 7.92775 4.78552 7.14926 4.78552 6.19175C4.78552 5.23423 4.09874 4.45574 3.25403 4.45574C2.40931 4.45574 1.72253 5.23423 1.72253 6.19175C1.72253 7.14926 2.40931 7.92775 3.25403 7.92775ZM13.9745 7.92775C14.8192 7.92775 15.506 7.14926 15.506 6.19175C15.506 5.23423 14.8192 4.45574 13.9745 4.45574C13.1298 4.45574 12.443 5.23423 12.443 6.19175C12.443 7.14926 13.1298 7.92775 13.9745 7.92775ZM14.7402 8.79576H13.2087C12.7876 8.79576 12.4071 8.98835 12.1295 9.30029C13.0939 9.89975 13.7783 10.982 13.9266 12.2678H15.506C15.9295 12.2678 16.2717 11.8799 16.2717 11.3998V10.5318C16.2717 9.57425 15.5849 8.79576 14.7402 8.79576ZM8.61426 8.79576C10.0955 8.79576 11.2944 7.43679 11.2944 5.75774C11.2944 4.0787 10.0955 2.71973 8.61426 2.71973C7.13301 2.71973 5.93414 4.0787 5.93414 5.75774C5.93414 7.43679 7.13301 8.79576 8.61426 8.79576ZM10.452 9.66376H10.2534C9.7557 9.93502 9.20292 10.0978 8.61426 10.0978C8.02559 10.0978 7.47521 9.93502 6.97508 9.66376H6.77646C5.25454 9.66376 4.01977 11.0634 4.01977 12.7886V13.5698C4.01977 14.2886 4.53426 14.8718 5.1684 14.8718H12.0601C12.6943 14.8718 13.2087 14.2886 13.2087 13.5698V12.7886C13.2087 11.0634 11.974 9.66376 10.452 9.66376ZM5.099 9.30029C4.82142 8.98835 4.44094 8.79576 4.01977 8.79576H2.48828C1.64357 8.79576 0.956787 9.57425 0.956787 10.5318V11.3998C0.956787 11.8799 1.29898 12.2678 1.72253 12.2678H3.29949C3.45025 10.982 4.13464 9.89975 5.099 9.30029Z" fill="#767676"/>
</g>
</svg>
