<svg width="16" height="16" viewBox="0 0 16 16" fill="none" xmlns="http://www.w3.org/2000/svg">
<mask id="mask0_739_2388" style="mask-type:luminance" maskUnits="userSpaceOnUse" x="0" y="0" width="16" height="16">
<path d="M0.000244141 0.0361328H15.3152V15.9995H0.000244141V0.0361328Z" fill="white"/>
</mask>
<g mask="url(#mask0_739_2388)">
<path d="M5.183 5.43758C5.9305 4.65843 5.9305 3.39476 5.183 2.61561C4.43549 1.83646 3.22316 1.83646 2.47566 2.61561C1.72816 3.39476 1.72816 4.65843 2.47566 5.43758C3.22346 6.21704 4.43549 6.21704 5.183 5.43758ZM12.8404 10.5973C12.093 9.81816 10.8806 9.81816 10.1331 10.5973C9.38564 11.3765 9.38564 12.6401 10.1331 13.4192C10.8806 14.1984 12.093 14.1984 12.8404 13.4192C13.5883 12.6401 13.5883 11.3768 12.8404 10.5973ZM12.7824 3.38167L12.1058 2.67641C11.7319 2.28668 11.1259 2.28668 10.7523 2.67641L2.53399 11.2427C2.16009 11.6324 2.16009 12.2641 2.53399 12.6535L3.21061 13.3588C3.5845 13.7485 4.19052 13.7485 4.56412 13.3588L12.7824 4.7925C13.1563 4.40308 13.1563 3.7714 12.7824 3.38167Z" fill="#767676"/>
</g>
</svg>
