<svg width="16" height="16" viewBox="0 0 16 16" fill="none" xmlns="http://www.w3.org/2000/svg">
<mask id="mask0_739_2405" style="mask-type:luminance" maskUnits="userSpaceOnUse" x="0" y="0" width="16" height="16">
<path d="M0.226562 0H15.2266V16H0.226562V0Z" fill="white"/>
</mask>
<g mask="url(#mask0_739_2405)">
<path d="M14.9922 8C14.9922 12.2802 11.7393 15.75 7.72656 15.75C3.71386 15.75 0.460938 12.2802 0.460938 8C0.460938 3.71978 3.71386 0.25 7.72656 0.25C11.7393 0.25 14.9922 3.71978 14.9922 8ZM6.88615 12.1036L12.2768 6.35356C12.4598 6.15831 12.4598 5.84172 12.2768 5.64647L11.6139 4.93937C11.4308 4.74409 11.134 4.74409 10.9509 4.93937L6.55469 9.62869L4.50218 7.43934C4.31913 7.24409 4.02232 7.24409 3.83925 7.43934L3.17635 8.14644C2.9933 8.34169 2.9933 8.65828 3.17635 8.85353L6.22323 12.1035C6.4063 12.2988 6.70307 12.2988 6.88615 12.1036Z" fill="white"/>
</g>
</svg>
