<svg width="16" height="17" viewBox="0 0 16 17" fill="none" xmlns="http://www.w3.org/2000/svg">
<mask id="mask0_739_2398" style="mask-type:luminance" maskUnits="userSpaceOnUse" x="0" y="0" width="16" height="17">
<path d="M0.000244141 0.879883H15.3152V16.8433H0.000244141V0.879883Z" fill="white"/>
</mask>
<g mask="url(#mask0_739_2398)">
<path d="M7.65785 3.37369C6.94393 3.37369 6.2611 3.51741 5.60936 3.80485C4.97961 4.0826 4.42173 4.47477 3.93572 4.98137C3.4497 5.48796 3.07346 6.06947 2.80699 6.72588C2.53122 7.40521 2.39334 8.11695 2.39334 8.86111C2.39334 9.60526 2.53122 10.317 2.80699 10.9963C3.07346 11.6527 3.4497 12.2342 3.93572 12.7408C4.42173 13.2475 4.97961 13.6396 5.60936 13.9173C6.2611 14.2048 6.94393 14.3485 7.65785 14.3485C8.37178 14.3485 9.0546 14.2048 9.70634 13.9173C10.3361 13.6396 10.894 13.2475 11.38 12.7408C11.866 12.2342 12.2422 11.6527 12.5087 10.9963C12.7845 10.317 12.9224 9.60526 12.9224 8.86111C12.9224 8.11695 12.7845 7.40521 12.5087 6.72588C12.2422 6.06947 11.866 5.48796 11.38 4.98137C10.894 4.47477 10.3361 4.0826 9.70634 3.80485C9.0546 3.51741 8.37178 3.37369 7.65785 3.37369ZM7.65785 2.37598C8.50122 2.37598 9.30839 2.54599 10.0793 2.88601C10.8237 3.2143 11.4828 3.67758 12.0568 4.27588C12.6308 4.87417 13.0753 5.56125 13.3902 6.33709C13.7164 7.14068 13.8795 7.98202 13.8795 8.86111C13.8795 9.74019 13.7164 10.5815 13.3902 11.3851C13.0753 12.161 12.6308 12.848 12.0568 13.4463C11.4828 14.0446 10.8237 14.5079 10.0793 14.8362C9.30839 15.1762 8.50122 15.3462 7.65785 15.3462C6.81448 15.3462 6.00732 15.1762 5.23637 14.8362C4.49204 14.5079 3.83287 14.0446 3.25888 13.4463C2.68489 12.848 2.24042 12.161 1.92547 11.3851C1.59926 10.5815 1.43616 9.74019 1.43616 8.86111C1.43616 7.98202 1.59926 7.14068 1.92547 6.33709C2.24042 5.56125 2.68489 4.87417 3.25888 4.27588C3.83287 3.67758 4.49204 3.2143 5.23637 2.88601C6.00732 2.54599 6.81448 2.37598 7.65785 2.37598Z" fill="#767676"/>
<path fill-rule="evenodd" clip-rule="evenodd" d="M7.6581 4.37109C7.39378 4.37109 7.1795 4.59444 7.1795 4.86995V9.35965C7.1795 9.39241 7.18257 9.42485 7.1887 9.45697C7.19483 9.4891 7.20391 9.52029 7.21593 9.55056C7.22796 9.58082 7.2427 9.60957 7.26016 9.6368C7.27762 9.66404 7.29746 9.68924 7.31968 9.7124C7.3419 9.73556 7.36608 9.75624 7.3922 9.77443C7.41833 9.79263 7.44591 9.808 7.47495 9.82054C7.50398 9.83307 7.53391 9.84253 7.56473 9.84892C7.59555 9.85531 7.62667 9.85851 7.6581 9.85851H10.5296C10.794 9.85851 11.0082 9.63516 11.0082 9.35965C11.0082 9.08415 10.794 8.8608 10.5296 8.8608H8.13669V4.86995C8.13669 4.59444 7.92241 4.37109 7.6581 4.37109Z" fill="#767676"/>
</g>
</svg>
