<svg width="16" height="16" viewBox="0 0 16 16" fill="none" xmlns="http://www.w3.org/2000/svg">
<path fill-rule="evenodd" clip-rule="evenodd" d="M6.88442 0.322266C5.51567 0.519141 4.19067 1.07539 3.06567 2.00352L5.48442 4.42227C6.35317 3.30352 6.83755 1.88477 6.88442 0.322266ZM8 6.9375L12.9344 2.00312C11.6094 0.909375 10.0094 0.33125 8.3875 0.25C8.35 2.24688 7.71562 4.07188 6.55312 5.49062L8 6.9375ZM2.00312 3.06562C1.075 4.19063 0.51875 5.51562 0.321875 6.88437C1.88437 6.8375 3.30625 6.35313 4.42188 5.48438L2.00312 3.06562ZM10.5094 9.44687C11.925 8.2875 13.75 7.65312 15.75 7.6125C15.6687 5.99062 15.0906 4.39062 13.9969 3.06562L9.0625 8L10.5094 9.44687ZM8 9.0625L3.06562 13.9969C4.39062 15.0875 5.99062 15.6687 7.6125 15.75C7.65313 13.75 8.2875 11.925 9.44688 10.5094L8 9.0625ZM13.9969 12.934C14.925 11.809 15.4812 10.484 15.6781 9.11523C14.1125 9.16523 12.6937 9.64961 11.5781 10.5152L13.9969 12.934ZM5.49062 6.55273C4.07188 7.71523 2.24688 8.35273 0.25 8.38711C0.33125 10.009 0.909375 11.609 2.00312 12.934L6.9375 7.99961L5.49062 6.55273ZM9.11563 15.6781C10.4844 15.4813 11.8094 14.925 12.9344 13.9969L10.5156 11.5781C9.65 12.6938 9.16563 14.1156 9.11563 15.6781Z" fill="#1E40AF"/>
</svg>
